<?xml version="1.0" encoding="UTF-8"?>
<svg xmlns="http://www.w3.org/2000/svg" version="1.1" viewBox="0 0 500 500">
  <defs>
    <style>
      .cls-1 {
        fill: #f33;
      }

      .cls-2 {
        fill: #900;
      }

      .cls-3 {
        fill: red;
      }
    </style>
  </defs>
  <!-- Generator: Adobe Illustrator 28.6.0, SVG Export Plug-In . SVG Version: 1.2.0 Build 709)  -->
  <g>
    <g id="RED">
      <path class="cls-2" d="M250.93,491.83c-65.23,0-126.55-25.4-172.67-71.52S6.73,312.86,6.73,247.63s25.4-126.55,71.52-172.67C124.38,28.83,185.7,3.43,250.93,3.43s126.55,25.4,172.67,71.52c46.12,46.12,71.52,107.45,71.52,172.68s-25.4,126.55-71.52,172.68c-46.12,46.12-107.45,71.52-172.67,71.52Z"/>
      <circle class="cls-3" cx="250.93" cy="247.63" r="206.89"/>
      <polygon class="cls-1" points="325.01 340.48 256.55 298.04 195.02 350.03 214.23 271.8 145.77 229.36 226.11 223.46 245.32 145.23 275.76 219.81 356.09 213.91 294.57 265.9 325.01 340.48"/>
    </g>
  </g>
</svg>