<?xml version="1.0" encoding="UTF-8"?>
<svg xmlns="http://www.w3.org/2000/svg" version="1.1" viewBox="0 0 500 500">
  <defs>
    <style>
      .cls-1 {
        fill: #ff0;
      }

      .cls-2 {
        fill: #fc6;
      }

      .cls-3 {
        fill: #fc3;
      }
    </style>
  </defs>
  <!-- Generator: Adobe Illustrator 28.6.0, SVG Export Plug-In . SVG Version: 1.2.0 Build 709)  -->
  <g>
    <g id="RED">
      <path class="cls-3" d="M254.85,493.7c-65.23,0-126.55-25.4-172.67-71.52S10.65,314.73,10.65,249.51s25.4-126.55,71.52-172.67C128.3,30.71,189.63,5.31,254.85,5.31s126.55,25.4,172.67,71.52c46.12,46.12,71.52,107.45,71.52,172.68s-25.4,126.55-71.52,172.68c-46.12,46.12-107.45,71.52-172.67,71.52Z"/>
      <circle class="cls-1" cx="254.85" cy="249.51" r="206.89"/>
      <polygon class="cls-2" points="328.93 342.35 260.47 299.91 198.94 351.9 218.16 273.68 149.69 231.23 230.03 225.33 249.24 147.11 279.68 221.68 360.01 215.78 298.49 267.78 328.93 342.35"/>
    </g>
  </g>
</svg>